HIERARCHY
ROOT Hips
{
	OFFSET -32.860001 56.121803 44.745396
	CHANNELS 6 Xposition Yposition Zposition Zrotation Xrotation Yrotation
	JOINT Chest
	{
		OFFSET -0.637402 0.831600 5.390099
		CHANNELS 6 Xposition Yposition Zposition Zrotation Xrotation Yrotation
		JOINT Chest2
		{
			OFFSET 0.000000 0.000000 4.429901
			CHANNELS 6 Xposition Yposition Zposition Zrotation Xrotation Yrotation
			JOINT Neck
			{
				OFFSET 0.000000 0.000000 10.301395
				CHANNELS 6 Xposition Yposition Zposition Zrotation Xrotation Yrotation
				JOINT Head
				{
					OFFSET 0.000000 0.000000 2.173897
					CHANNELS 6 Xposition Yposition Zposition Zrotation Xrotation Yrotation
					End Site
					{
						OFFSET 0.000000 0.000000 8.298004
					}
				}
			}
			JOINT LeftCollar
			{
				OFFSET 2.142401 -0.572701 5.717800
				CHANNELS 6 Xposition Yposition Zposition Zrotation Xrotation Yrotation
				JOINT LeftShoulder
				{
					OFFSET 5.674000 0.000000 0.000000
					CHANNELS 6 Xposition Yposition Zposition Zrotation Xrotation Yrotation
					JOINT LeftElbow
					{
						OFFSET 0.000000 0.000000 -12.238701
						CHANNELS 6 Xposition Yposition Zposition Zrotation Xrotation Yrotation
						JOINT LeftWrist
						{
							OFFSET 0.000000 0.000000 -10.253700
							CHANNELS 6 Xposition Yposition Zposition Zrotation Xrotation Yrotation
							End Site
							{
								OFFSET 0.000000 0.000000 -2.173901
							}
						}
					}
				}
			}
			JOINT RightCollar
			{
				OFFSET -2.882599 -1.580101 6.695801
				CHANNELS 6 Xposition Yposition Zposition Zrotation Xrotation Yrotation
				JOINT RightShoulder
				{
					OFFSET -4.235600 0.000000 0.000000
					CHANNELS 6 Xposition Yposition Zposition Zrotation Xrotation Yrotation
					JOINT RightElbow
					{
						OFFSET 0.000000 0.000000 -10.709900
						CHANNELS 6 Xposition Yposition Zposition Zrotation Xrotation Yrotation
						JOINT RightWrist
						{
							OFFSET 0.000000 0.000000 -11.716801
							CHANNELS 6 Xposition Yposition Zposition Zrotation Xrotation Yrotation
							End Site
							{
								OFFSET 0.000000 0.000000 -2.173901
							}
						}
					}
				}
			}
		}
	}
	JOINT LeftHip
	{
		OFFSET 2.279499 0.210400 -2.475502
		CHANNELS 6 Xposition Yposition Zposition Zrotation Xrotation Yrotation
		JOINT LeftKnee
		{
			OFFSET 0.000000 -0.000004 -20.742800
			CHANNELS 6 Xposition Yposition Zposition Zrotation Xrotation Yrotation
			JOINT LeftAnkle
			{
				OFFSET 0.000000 0.000000 -16.666000
				CHANNELS 6 Xposition Yposition Zposition Zrotation Xrotation Yrotation
				End Site
				{
					OFFSET 0.000000 -8.310898 0.000000
				}
			}
		}
	}
	JOINT RightHip
	{
		OFFSET -1.961899 0.232300 -2.727402
		CHANNELS 6 Xposition Yposition Zposition Zrotation Xrotation Yrotation
		JOINT RightKnee
		{
			OFFSET 0.000000 -0.000004 -20.526800
			CHANNELS 6 Xposition Yposition Zposition Zrotation Xrotation Yrotation
			JOINT RightAnkle
			{
				OFFSET 0.000000 0.000000 -16.867300
				CHANNELS 6 Xposition Yposition Zposition Zrotation Xrotation Yrotation
				End Site
				{
					OFFSET 0.000000 -7.186401 0.000000
				}
			}
		}
	}
}
MOTION
Frames: 9
Frame Time: 0.041667
55.618896 85.559708 44.997189 1608.397534 1.846481 3.900061 -0.637404 0.831597 5.390114 12.227898 11.903999 -1.755107 -0.000004 -0.000007 4.429893 -4.074165 -0.769347 -0.009787 0.000002 -0.000008 10.301408 375.233272 30.356830 -2.203316 -0.000005 0.000000 2.173892 -358.385353 7.141817 1.424594 2.142404 -0.572701 5.717807 6.406974 -4.326468 -12.606385 5.673999 -0.000003 0.000000 348.243315 -716.062990 -67.511830 0.000000 -0.000000 -12.238707 -889.702736 199.451564 -173.757963 0.000001 0.000009 -10.253700 -268.685599 11.576065 5.035630 -2.882601 -1.580110 6.695807 -3.442972 -7.594461 8.538197 -4.235601 0.000012 -0.000004 -1069.899628 -3.613979 -650.175433 -0.000010 0.000003 -10.709894 175.126706 -161.772266 169.887090 -0.000007 0.000017 -11.716802 -1002.275728 10.838222 24.774327 2.279501 0.210402 -2.475492 383.790297 -19.637154 3.239072 -0.000001 -0.000017 -20.742800 -369.682295 28.062041 -5.812777 -0.000005 0.000002 -16.665995 337.876290 28.579103 14.206459 -1.961896 0.232301 -2.727400 -1072.060372 10.688196 16.290935 -0.000009 0.000010 -20.526794 879.406472 155.063749 -186.165699 -0.000005 0.000007 -16.867306 23.914910 69.919697 -34.135404
55.612320 85.564407 44.994991 1608.385513 1.911803 3.930768 -0.637398 0.831593 5.390097 12.237964 11.841200 -1.752754 -0.000008 -0.000003 4.429903 -4.150763 -0.759950 -0.017152 -0.000008 -0.000020 10.301397 375.517353 30.343553 -2.389975 -0.000006 -0.000006 2.173901 -358.463272 7.211925 1.644136 2.142393 -0.572705 5.717799 6.421689 -4.505274 -12.751035 5.673990 0.000009 0.000005 348.338200 -716.095174 -67.287964 0.000000 0.000012 -12.238701 -889.913215 199.460949 -173.863968 0.000004 0.000002 -10.253695 -268.580305 11.789715 4.683726 -2.882612 -1.580112 6.695786 -3.312596 -7.639980 8.662708 -4.235608 0.000012 -0.000007 -1069.717563 -3.395313 -650.333457 0.000001 -0.000004 -10.709913 174.862419 -161.940766 169.899822 0.000007 -0.000001 -11.716792 -1001.736417 10.165126 24.801108 2.279504 0.210391 -2.475500 383.800788 -19.691514 3.262061 0.000004 0.000001 -20.742794 -369.673771 28.044813 -5.838534 0.000003 -0.000007 -16.665998 337.929893 28.587736 14.136888 -1.961896 0.232303 -2.727410 -1072.149329 10.584521 16.316113 0.000003 -0.000005 -20.526794 879.572528 155.048709 -186.199863 -0.000001 0.000011 -16.867298 23.862910 69.933050 -34.083354
55.604805 85.569290 44.992889 1608.348576 1.970489 3.945235 -0.637400 0.831585 5.390097 12.270022 11.789935 -1.730168 0.000004 0.000000 4.429909 -4.212125 -0.757011 -0.022262 -0.000004 0.000005 10.301388 376.176275 30.335882 -2.661568 0.000001 -0.000004 2.173905 -358.629136 7.359782 1.867298 2.142391 -0.572689 5.717793 6.428465 -4.663246 -12.894678 5.674008 0.000009 0.000005 348.432593 -716.077033 -67.089431 0.000001 0.000003 -12.238701 -890.054300 199.493488 -173.931450 0.000007 0.000007 -10.253700 -268.479000 11.920559 4.592302 -2.882606 -1.580090 6.695785 -3.218950 -7.742590 8.757380 -4.235600 -0.000001 -0.000000 -1069.572763 -3.207877 -650.462465 0.000005 -0.000003 -10.709898 174.683454 -161.790092 169.818078 -0.000004 -0.000002 -11.716799 -1002.078582 10.663777 24.786459 2.279503 0.210384 -2.475496 383.842807 -19.727763 3.311221 0.000000 -0.000005 -20.742794 -369.661285 28.019787 -5.880433 0.000008 0.000018 -16.666002 337.992977 28.599078 14.038936 -1.961895 0.232291 -2.727405 -1072.151842 10.511915 16.345498 0.000005 -0.000008 -20.526793 879.721699 155.032645 -186.253125 -0.000002 -0.000006 -16.867308 23.716444 69.929888 -33.965001
55.596313 85.574905 44.991787 1608.294043 1.992472 3.947883 -0.637396 0.831582 5.390099 12.320235 11.777696 -1.689934 -0.000003 -0.000001 4.429904 -4.198946 -0.777030 -0.017142 -0.000007 0.000011 10.301378 376.456750 30.304006 -2.743264 0.000001 -0.000004 2.173906 -358.744129 7.357339 2.081429 2.142392 -0.572695 5.717784 6.429233 -4.615610 -12.888913 5.674001 0.000023 0.000005 348.434014 -716.181780 -67.091247 0.000002 -0.000001 -12.238700 -890.118995 199.404709 -174.028056 0.000002 -0.000006 -10.253700 -268.395835 11.988281 4.637172 -2.882612 -1.580086 6.695786 -3.221907 -7.818013 8.606706 -4.235606 0.000001 -0.000001 -1069.476812 -3.155862 -650.391431 -0.000000 -0.000002 -10.709898 174.713521 -161.622316 169.867269 -0.000006 0.000005 -11.716808 -1002.262396 10.947230 24.879919 2.279503 0.210381 -2.475501 383.903951 -19.718020 3.339752 0.000005 -0.000009 -20.742800 -369.661149 27.974619 -5.877533 -0.000002 0.000006 -16.665995 338.081223 28.628986 13.894727 -1.961889 0.232289 -2.727404 -1072.017970 10.523830 16.353104 0.000008 0.000004 -20.526789 879.879121 155.038081 -186.344786 -0.000007 0.000003 -16.867294 23.449721 69.900416 -33.848898
55.587105 85.580811 44.991489 1608.238965 2.001989 3.925805 -0.637406 0.831594 5.390105 12.368439 11.776513 -1.645233 -0.000005 -0.000012 4.429895 -4.158491 -0.807666 -0.021527 0.000001 -0.000013 10.301391 376.607642 30.272959 -2.728108 -0.000005 0.000008 2.173890 -358.701564 7.298522 2.221135 2.142397 -0.572709 5.717799 6.392377 -4.538429 -12.780927 5.673995 -0.000006 0.000000 348.404316 -716.249645 -67.167718 0.000007 0.000006 -12.238693 -890.114624 199.180351 -174.117996 0.000008 -0.000005 -10.253697 -268.283711 12.111396 4.913559 -2.882600 -1.580120 6.695786 -3.099182 -7.475931 8.423741 -4.235599 -0.000001 -0.000007 -1069.554403 -3.220479 -650.219693 -0.000013 0.000007 -10.709908 174.533504 -161.437327 170.008736 -0.000010 0.000001 -11.716799 -1002.190816 10.891244 24.946574 2.279496 0.210401 -2.475496 383.973919 -19.681871 3.394250 0.000002 -0.000012 -20.742796 -369.656531 27.930033 -5.899090 -0.000001 -0.000004 -16.665997 338.150617 28.647658 13.779294 -1.961896 0.232295 -2.727407 -1071.887924 10.543605 16.382006 0.000001 -0.000012 -20.526791 880.033866 155.025869 -186.422186 -0.000004 -0.000006 -16.867311 23.199764 69.856060 -33.765498
55.576912 85.586311 44.991894 1608.205415 2.004518 3.877387 -0.637402 0.831594 5.390087 12.391242 11.792991 -1.585605 0.000002 0.000005 4.429901 -4.095817 -0.836105 -0.024181 0.000008 0.000012 10.301407 376.721734 30.208076 -2.800527 -0.000001 -0.000001 2.173891 -358.810054 7.179738 2.181696 2.142399 -0.572687 5.717801 6.338614 -4.459700 -12.672970 5.674001 0.000011 -0.000004 348.416911 -716.279042 -67.254325 0.000010 0.000002 -12.238697 -890.092549 199.079701 -174.151533 -0.000008 0.000018 -10.253695 -268.158063 12.143798 5.097601 -2.882593 -1.580086 6.695798 -3.034030 -7.225939 8.308294 -4.235599 0.000003 -0.000009 -1069.614181 -3.498333 -650.062325 0.000003 0.000008 -10.709904 174.589785 -161.423899 169.991059 -0.000007 0.000000 -11.716792 -1001.694233 10.408591 24.951205 2.279499 0.210400 -2.475511 384.028916 -19.634668 3.473453 -0.000002 -0.000008 -20.742802 -369.637434 27.933790 -5.930705 -0.000002 0.000011 -16.665991 338.269545 28.629361 13.526746 -1.961900 0.232302 -2.727410 -1071.883662 10.518669 16.449903 0.000012 -0.000007 -20.526800 880.283086 154.957977 -186.465899 -0.000006 0.000010 -16.867310 22.994025 69.768402 -33.743928
55.566406 85.591103 44.992290 1608.198311 2.031355 3.825116 -0.637393 0.831602 5.390100 12.385067 11.790638 -1.520478 -0.000003 -0.000005 4.429906 -4.006827 -0.855912 -0.018354 -0.000004 -0.000013 10.301375 376.803696 30.170619 -2.792954 -0.000005 -0.000002 2.173889 -358.857292 7.076514 1.978953 2.142393 -0.572706 5.717792 6.278327 -4.360770 -12.586178 5.673997 0.000007 0.000006 348.498217 -716.408707 -67.331213 -0.000002 0.000009 -12.238700 -890.162872 199.046370 -174.145017 0.000000 -0.000003 -10.253697 -268.322014 12.085783 5.073990 -2.882605 -1.580097 6.695789 -3.087355 -7.262326 8.302921 -4.235603 -0.000003 0.000010 -1069.598335 -3.654564 -650.073035 -0.000008 0.000018 -10.709904 178.702132 -160.501973 171.174198 0.000005 -0.000008 -11.716799 -1005.836388 11.038049 24.777438 2.279508 0.210394 -2.475496 384.059980 -19.608070 3.559466 -0.000000 -0.000006 -20.742798 -369.623146 27.931316 -5.949055 0.000002 0.000021 -16.665998 338.369074 28.617540 13.311831 -1.961888 0.232287 -2.727407 -1072.033707 10.409409 16.548640 0.000008 -0.000014 -20.526798 880.570828 154.839145 -186.457280 -0.000007 0.000002 -16.867310 22.908707 69.660915 -33.788632
55.557098 85.596207 44.993790 1608.207054 2.093981 3.780554 -0.637405 0.831598 5.390104 12.361543 11.812530 -1.415933 -0.000003 -0.000003 4.429892 -3.950354 -0.877712 -0.014103 -0.000009 -0.000012 10.301395 376.415468 30.080809 -2.631043 0.000004 -0.000001 2.173889 -358.713831 6.948064 1.817768 2.142391 -0.572705 5.717797 6.256941 -4.314957 -12.553913 5.674004 0.000020 -0.000001 348.543133 -716.542360 -67.388518 0.000002 0.000016 -12.238696 -890.197460 198.916706 -174.181640 -0.000010 0.000012 -10.253694 -268.455067 12.097359 5.048009 -2.882606 -1.580105 6.695798 -3.282755 -7.457974 8.198799 -4.235613 0.000002 -0.000002 -1069.366874 -3.769940 -650.028830 -0.000006 0.000011 -10.709906 178.939768 -160.447332 171.139651 0.000006 0.000002 -11.716789 -1006.127955 11.360594 24.782380 2.279500 0.210402 -2.475501 384.073613 -19.622923 3.640322 0.000002 -0.000006 -20.742798 -369.612572 27.936831 -5.951759 0.000004 -0.000003 -16.666006 338.446064 28.601511 13.150958 -1.961897 0.232291 -2.727404 -1072.392921 10.172718 16.671182 0.000012 0.000018 -20.526802 880.906819 154.664456 -186.361343 -0.000005 -0.000010 -16.867310 23.023664 69.546837 -33.933404
55.545700 85.606804 44.995693 1608.147167 2.120255 3.702193 -0.637401 0.831593 5.390098 12.400777 11.823158 -1.295734 -0.000004 0.000002 4.429892 -3.746074 -0.888645 0.011460 -0.000000 -0.000009 10.301399 376.011831 30.124297 -2.559839 -0.000003 -0.000007 2.173918 -358.521766 6.933429 1.532634 2.142401 -0.572709 5.717796 6.209685 -3.972213 -12.423097 5.673997 0.000008 0.000010 348.386831 -716.773439 -67.596770 0.000008 0.000001 -12.238697 -890.036377 198.729340 -174.236678 -0.000008 -0.000005 -10.253699 -268.672212 12.203872 4.991918 -2.882604 -1.580106 6.695795 -3.513046 -7.572705 7.970669 -4.235611 -0.000008 -0.000004 -1069.209834 -3.539926 -649.850753 0.000015 0.000004 -10.709896 178.797250 -160.546001 171.082483 0.000002 0.000002 -11.716808 -1005.856059 10.952141 24.714951 2.279504 0.210398 -2.475492 384.167378 -19.579145 3.749637 0.000005 -0.000004 -20.742796 -369.599759 27.930853 -5.969381 -0.000004 -0.000004 -16.665997 338.501033 28.579853 13.019722 -1.961896 0.232300 -2.727401 -1072.908299 9.878088 16.858351 0.000003 0.000006 -20.526802 881.298106 154.440139 -186.181845 -0.000003 0.000000 -16.867296 23.325535 69.435792 -34.175589
